<svg width="21" height="15" viewBox="0 0 21 15" fill="none" xmlns="http://www.w3.org/2000/svg">
<path fill-rule="evenodd" clip-rule="evenodd" d="M12.75 0H3.75C2.75544 0 1.80161 0.395088 1.09835 1.09835C0.395088 1.80161 0 2.75544 0 3.75V11.25C0 12.2446 0.395088 13.1984 1.09835 13.9017C1.80161 14.6049 2.75544 15 3.75 15H12.75C13.7446 15 14.6984 14.6049 15.4017 13.9017C16.1049 13.1984 16.5 12.2446 16.5 11.25V3.75C16.5 2.75544 16.1049 1.80161 15.4017 1.09835C14.6984 0.395088 13.7446 0 12.75 0ZM1.5 3.75C1.5 3.15326 1.73705 2.58097 2.15901 2.15901C2.58097 1.73705 3.15326 1.5 3.75 1.5H12.75C13.3467 1.5 13.919 1.73705 14.341 2.15901C14.7629 2.58097 15 3.15326 15 3.75V11.25C15 11.8467 14.7629 12.419 14.341 12.841C13.919 13.2629 13.3467 13.5 12.75 13.5H3.75C3.15326 13.5 2.58097 13.2629 2.15901 12.841C1.73705 12.419 1.5 11.8467 1.5 11.25V3.75Z" fill="white"/>
<path fill-rule="evenodd" clip-rule="evenodd" d="M19.8405 1.61995L15.3765 4.52395C15.2727 4.59123 15.1871 4.68314 15.1274 4.79149C15.0678 4.89984 15.0358 5.02127 15.0345 5.14495L14.994 9.06295C14.9924 9.18929 15.0228 9.31397 15.0823 9.42542C15.1419 9.53687 15.2286 9.63148 15.3345 9.70045L19.8405 12.6285C19.9536 12.7022 20.0846 12.744 20.2196 12.7495C20.3546 12.755 20.4886 12.7239 20.6074 12.6595C20.7261 12.5951 20.8253 12.4998 20.8944 12.3837C20.9635 12.2677 21 12.1351 21 12V2.24995C21.0003 2.11473 20.964 1.98193 20.895 1.86563C20.826 1.74933 20.7268 1.65384 20.608 1.58928C20.4892 1.52472 20.3551 1.49349 20.22 1.49889C20.0849 1.50429 19.9537 1.54612 19.8405 1.61995ZM19.5 10.62L16.4985 8.66845L16.53 5.56345L19.5 3.63295V10.62Z" fill="white"/>
<circle cx="10" cy="5" r="1.5" stroke="white"/>
</svg>
