<svg width="15" height="17" viewBox="0 0 15 17" fill="none" xmlns="http://www.w3.org/2000/svg">
<path d="M1.96875 0.932373C1.44661 0.932373 0.945846 1.10705 0.576634 1.41799C0.207421 1.72892 0 2.15063 0 2.59036V14.7489C0 15.1887 0.207421 15.6104 0.576634 15.9213C0.945846 16.2322 1.44661 16.4069 1.96875 16.4069H12.4688C12.9909 16.4069 13.4917 16.2322 13.8609 15.9213C14.2301 15.6104 14.4375 15.1887 14.4375 14.7489V5.81128C14.4372 5.37178 14.2297 4.95036 13.8607 4.63963L10.036 1.41761C9.6668 1.10686 9.16613 0.93232 8.64413 0.932373H1.96875ZM1.3125 2.59036C1.3125 2.44378 1.38164 2.30321 1.50471 2.19957C1.62778 2.09592 1.7947 2.0377 1.96875 2.0377H7.875V4.80101C7.875 5.24073 8.08242 5.66245 8.45163 5.97338C8.82085 6.28432 9.32161 6.459 9.84375 6.459H13.125V14.7489C13.125 14.8955 13.0559 15.0361 12.9328 15.1397C12.8097 15.2434 12.6428 15.3016 12.4688 15.3016H1.96875C1.7947 15.3016 1.62778 15.2434 1.50471 15.1397C1.38164 15.0361 1.3125 14.8955 1.3125 14.7489V2.59036ZM12.8533 5.35367H9.84375C9.6697 5.35367 9.50278 5.29544 9.37971 5.1918C9.25664 5.08816 9.1875 4.94758 9.1875 4.80101V2.2665L12.8533 5.35367Z" fill="#585958"/>
<path fill-rule="evenodd" clip-rule="evenodd" d="M8.21875 10.1521H3.21875V9.1521H8.21875V10.1521ZM7.21875 13.0996H3.21875V12.0996H7.21875V13.0996Z" fill="black"/>
</svg>
