<svg width="14" height="15" viewBox="0 0 14 15" fill="none" xmlns="http://www.w3.org/2000/svg">
<path d="M0.747423 12.8415C0.383741 13.2571 0.425859 13.8889 0.841495 14.2526C1.25713 14.6163 1.88889 14.5741 2.25258 14.1585L0.747423 12.8415ZM12.9978 1.43348C12.961 0.882419 12.4845 0.465477 11.9335 0.502214L2.95342 1.10089C2.40235 1.13762 1.98541 1.61413 2.02215 2.16519C2.05889 2.71625 2.53539 3.13319 3.08645 3.09646L11.0687 2.5643L11.6009 10.5466C11.6376 11.0976 12.1141 11.5146 12.6652 11.4779C13.2163 11.4411 13.6332 10.9646 13.5965 10.4135L12.9978 1.43348ZM2.25258 14.1585L12.7526 2.1585L11.2474 0.841494L0.747423 12.8415L2.25258 14.1585Z" fill="white"/>
</svg>
