<svg width="20" height="17" viewBox="0 0 20 17" fill="none" xmlns="http://www.w3.org/2000/svg">
<path d="M16.6 0.800003C17.3957 0.800003 18.1587 1.11607 18.7213 1.67868C19.284 2.24129 19.6 3.00435 19.6 3.8V13.4C19.6 14.1957 19.284 14.9587 18.7213 15.5213C18.1587 16.0839 17.3957 16.4 16.6 16.4H3.40002C2.60438 16.4 1.84131 16.0839 1.2787 15.5213C0.716095 14.9587 0.400024 14.1957 0.400024 13.4V3.8C0.400024 3.00435 0.716095 2.24129 1.2787 1.67868C1.84131 1.11607 2.60438 0.800003 3.40002 0.800003H16.6ZM18.4 5.5532L10.3048 10.3172C10.2283 10.3621 10.1427 10.3895 10.0543 10.3974C9.96595 10.4053 9.8769 10.3935 9.79362 10.3628L9.69522 10.3172L1.60002 5.5556V13.4C1.60002 13.8774 1.78967 14.3352 2.12723 14.6728C2.4648 15.0104 2.92263 15.2 3.40002 15.2H16.6C17.0774 15.2 17.5353 15.0104 17.8728 14.6728C18.2104 14.3352 18.4 13.8774 18.4 13.4V5.5532ZM16.6 2H3.40002C2.92263 2 2.4648 2.18965 2.12723 2.52721C1.78967 2.86478 1.60002 3.32261 1.60002 3.8V4.1624L10 9.104L18.4 4.16V3.8C18.4 3.32261 18.2104 2.86478 17.8728 2.52721C17.5353 2.18965 17.0774 2 16.6 2Z" fill="white"/>
</svg>
