<svg width="111" height="111" viewBox="0 0 111 111" fill="none" xmlns="http://www.w3.org/2000/svg">
<path fill-rule="evenodd" clip-rule="evenodd" d="M55.0001 57.0102L4.00005 34.0102L4.82227 32.187L55.8223 55.187L55.0001 57.0102Z" fill="black"/>
<path fill-rule="evenodd" clip-rule="evenodd" d="M54.8867 57.6579L24 11.0102L25.6676 9.90601L56.5543 56.5538L54.8867 57.6579Z" fill="black"/>
<path fill-rule="evenodd" clip-rule="evenodd" d="M54.9134 56.9455L54.6226 0.9999L56.6226 0.989502L56.9134 56.9352L54.9134 56.9455Z" fill="black"/>
<path fill-rule="evenodd" clip-rule="evenodd" d="M55 57.6454L84.3408 10.0102L86.0437 11.0591L56.7029 58.6943L55 57.6454Z" fill="black"/>
<path fill-rule="evenodd" clip-rule="evenodd" d="M55 56.1367L105.943 33.0102L106.77 34.8313L55.8268 57.9578L55 56.1367Z" fill="black"/>
<path fill-rule="evenodd" clip-rule="evenodd" d="M55 56.0103L110.294 64.5311L109.989 66.5078L54.6954 57.9869L55 56.0103Z" fill="black"/>
<path fill-rule="evenodd" clip-rule="evenodd" d="M55.0001 56.0103L98.2868 91.454L97.0198 93.0015L53.733 57.5577L55.0001 56.0103Z" fill="black"/>
<path fill-rule="evenodd" clip-rule="evenodd" d="M55.0001 56.0102L71.4539 109.482L69.5424 110.071L53.0885 56.5984L55.0001 56.0102Z" fill="black"/>
<path fill-rule="evenodd" clip-rule="evenodd" d="M55.6795 56.01L39 109.412L37.0909 108.816L53.7704 55.4137L55.6795 56.01Z" fill="black"/>
<path fill-rule="evenodd" clip-rule="evenodd" d="M55.7266 56.0103L14 93.278L12.6677 91.7864L54.3944 54.5186L55.7266 56.0103Z" fill="black"/>
<path fill-rule="evenodd" clip-rule="evenodd" d="M56.1848 57.0102L1.00004 66.2106L0.671143 64.2378L55.8559 55.0375L56.1848 57.0102Z" fill="black"/>
<path d="M58 56.0103C58 57.6671 56.6569 59.0103 55 59.0103C53.3431 59.0103 52 57.6671 52 56.0103C52 54.3534 53.3431 53.0103 55 53.0103C56.6569 53.0103 58 54.3534 58 56.0103Z" fill="black"/>
</svg>
