<svg width="90" height="29" viewBox="0 0 90 29" fill="none" xmlns="http://www.w3.org/2000/svg">
<path fill-rule="evenodd" clip-rule="evenodd" d="M39.8141 7.69625C39.8278 8.89746 39.4492 10.1246 38.7005 11.3486C37.5308 13.2606 35.3512 14.4205 32.8755 15.1381C33.3428 15.6756 33.8385 16.2103 34.3631 16.7373C38.6568 21.05 44.7962 24.7545 52.9014 25.2725C59.1274 25.6704 65.949 21.9471 72.1215 16.7539C75.733 13.7154 79.0176 10.2624 81.6946 7.07096C80.9787 7.39087 80.2381 7.6909 79.4809 7.96015C75.8082 9.26618 71.4687 9.94495 67.672 8.29313L68.8688 5.54221C71.6334 6.74501 75.0806 6.34086 78.4758 5.13355C81.8342 3.93927 84.8696 2.05352 86.6087 0.700782C87.1262 0.298235 87.8452 0.278436 88.3841 0.651893C88.923 1.02535 89.1569 1.70552 88.9616 2.33142C88.0528 5.24505 87.0272 9.54731 86.8517 13.0294C86.7626 14.7985 86.9054 16.1645 87.253 17.0132C87.4181 17.4165 87.5947 17.6166 87.7318 17.7153C87.8487 17.7996 88.0315 17.8808 88.3818 17.8621L88.5416 20.8578C87.5938 20.9084 86.7159 20.681 85.9778 20.1492C85.2599 19.6318 84.7872 18.9081 84.4768 18.1501C83.8732 16.6764 83.7602 14.7701 83.8555 12.8784C83.9252 11.4944 84.1134 10.015 84.3697 8.54698C81.5265 11.9817 77.9823 15.7436 74.0529 19.0495C67.75 24.3523 60.1499 28.7419 52.71 28.2664C43.7329 27.6927 36.9373 23.575 32.2371 18.8539C31.2596 17.8721 30.3689 16.8603 29.5648 15.844C27.0693 16.2203 24.2702 16.3526 21.3978 16.3244C13.875 16.2507 5.55441 15.0713 0.182127 14.0079L0.764679 11.065C6.01952 12.1052 14.1462 13.2532 21.4272 13.3245C23.611 13.3459 25.6923 13.27 27.5814 13.0723C25.7324 10.2017 24.5909 7.4833 24.1533 5.51188C23.9041 4.38906 24.1016 3.32052 24.7657 2.45815C25.3883 1.64967 26.299 1.18037 27.1974 0.917756C28.9854 0.395143 31.2758 0.523309 33.33 1.09968C35.3754 1.67357 37.4992 2.78054 38.7478 4.52275C39.3902 5.41921 39.8002 6.48784 39.8141 7.69625ZM30.8523 12.5583C28.7213 9.53802 27.4849 6.67692 27.082 4.86178C27.0017 4.50004 27.0842 4.36445 27.1426 4.28857C27.2425 4.1588 27.497 3.95572 28.0391 3.79727C29.1322 3.47774 30.8249 3.51267 32.5196 3.98814C34.223 4.46607 35.6137 5.29968 36.3093 6.27027C36.6389 6.73022 36.8083 7.21105 36.8143 7.73061C36.8203 8.25736 36.6591 8.93665 36.1413 9.78308C35.4554 10.9043 33.8194 11.8666 31.0912 12.5039C31.0122 12.5224 30.9325 12.5405 30.8523 12.5583Z" fill="#FD9C02"/>
</svg>
