<svg width="199" height="29" viewBox="0 0 199 29" fill="none" xmlns="http://www.w3.org/2000/svg">
<path d="M16.279 0.230864L0 13.4263L1.40402 15.2292L2.95982 13.9633V27.8492C2.95982 28.1544 3.07976 28.4471 3.29325 28.6629C3.50674 28.8788 3.79629 29 4.09821 29H29.9018C30.2037 29 30.4933 28.8788 30.7068 28.6629C30.9202 28.4471 31.0402 28.1544 31.0402 27.8492V13.9633L32.596 15.2292L34 13.4263L17.721 0.230864C17.5099 0.080633 17.2581 0 17 0C16.7419 0 16.4901 0.080633 16.279 0.230864ZM22.3125 16.0347C22.3164 17.2655 21.9049 18.4608 21.146 19.4232C20.3871 20.3856 19.3261 21.0576 18.1384 21.3282V24.0134H15.8616V21.3282C14.6739 21.0576 13.6129 20.3856 12.854 19.4232C12.0951 18.4608 11.6836 17.2655 11.6875 16.0347C11.6875 13.3496 15.4442 9.32191 16.1652 8.55473C16.3948 8.34716 16.692 8.2324 17 8.2324C17.308 8.2324 17.6052 8.34716 17.8348 8.55473C18.5558 9.32191 22.3125 13.3496 22.3125 16.0347Z" fill="white"/>
<path d="M44 21.8113H53.1272V19.5597H47.0379V16.7044H52.422V14.5157H47.0379V11.673H53.0187V9.49686H44V21.8113ZM59.2979 21.9874C62.2816 21.9874 63.7191 20.3648 63.9497 18.5157L61.0474 18.4151C60.9118 19.6101 60.2473 20.1384 59.3522 20.1384C58.0773 20.1384 57.4806 19.1572 57.4806 17.044C57.4806 15.044 58.0231 14.1006 59.2979 14.1006C60.3015 14.1006 60.8576 14.6918 60.9661 15.6855L63.8954 15.5597C63.6513 13.7484 62.1595 12.2013 59.2979 12.2013C56.1109 12.2013 54.3749 13.9874 54.3749 17.1321C54.3749 20.1006 55.9888 21.9874 59.2979 21.9874ZM72.2225 17.0943C72.2225 19.1824 71.5444 20.1509 70.1068 20.1509C68.8049 20.1509 68.0319 19.0818 68.0319 17.0943C68.0319 15.1069 68.7099 14.1132 70.1611 14.1132C71.463 14.1132 72.2225 15.1195 72.2225 17.0943ZM75.2468 17.0692C75.2468 14.2013 73.7686 12.2013 70.134 12.2013C66.6621 12.2013 64.994 14.2264 64.994 17.0692C64.994 20.0377 66.6892 21.9874 70.0797 21.9874C73.5516 21.9874 75.2468 20.0503 75.2468 17.0692ZM85.9744 21.8113H88.958V9.49686H85.9744V14.327H80.4682V9.49686H77.3761V21.8113H80.4682V16.6541H85.9744V21.8113ZM101.299 20.0503H100.594C100.038 20.0503 99.8754 19.7987 99.8754 19.3585V15.6478C99.8754 13.3962 98.587 12.2013 95.7119 12.2013C92.891 12.2013 91.5212 13.3711 91.3449 15.0692L94.0844 15.2201C94.0844 14.3396 94.5998 13.8491 95.5491 13.8491C96.4578 13.8491 96.9867 14.2516 96.9867 15.3333V16.1258H95.9831C92.6333 16.1258 90.9516 16.9686 90.9516 19.1698C90.9516 20.5912 91.9688 21.9874 94.2336 21.9874C95.6169 21.9874 96.7561 21.4465 97.2308 20.239C97.2579 21.3836 98.2615 21.9874 99.6991 21.9874C100.35 21.9874 100.648 21.9748 101.299 21.912V20.0503ZM95.2643 20.2264C94.2879 20.2264 93.8403 19.6101 93.8403 18.9182C93.8403 17.8616 94.7218 17.5346 95.6983 17.5346H96.9867V18.239C96.9867 19.522 96.2679 20.2264 95.2643 20.2264ZM108.514 21.8113L112.041 12.3774H109.125L107.511 17.4088L106.819 19.6855L106.114 17.4088L104.378 12.3774H101.394L105.043 21.8113H108.514ZM117.533 21.9874C120.666 21.9874 121.656 20.6164 122.036 19.0818L119.215 18.9182C119.052 19.8365 118.55 20.2264 117.628 20.2264C116.204 20.2264 115.743 19.044 115.743 17.8491V17.5975H122.185C122.185 17.5975 122.226 17.195 122.226 16.7799C122.226 14.1509 121.059 12.2013 117.547 12.2013C114.834 12.2013 112.597 13.3585 112.597 17.044C112.597 20.3648 114.36 21.9874 117.533 21.9874ZM117.492 13.8491C118.523 13.8491 119.161 14.3396 119.161 15.9874V16.0126H115.743C115.797 14.3396 116.53 13.8491 117.492 13.8491ZM130.675 21.8113H133.685V15.5597C133.685 13.7987 132.967 12.2013 130.403 12.2013C128.803 12.2013 127.664 12.9182 127.162 14.3145C127.121 13.5723 127.027 12.6415 126.999 12.3774H124.151C124.178 12.9057 124.219 13.5849 124.219 14.5535V21.8113H127.189V16.805C127.189 15.2579 127.881 14.2893 129.088 14.2893C130.268 14.2893 130.675 14.956 130.675 16.2767V21.8113ZM144.603 17.2704H146.461L149.39 21.8113H152.808L149.431 16.9686C151.058 16.4906 152.13 15.3711 152.13 13.2704C152.13 10.9434 150.475 9.49686 147.098 9.49686H141.565V21.8113H144.603V17.2704ZM149.024 13.3459C149.024 14.3774 148.36 15.0692 146.813 15.0692H144.603V11.6855H146.773C148.237 11.6855 149.024 12.2264 149.024 13.3459ZM158.992 21.9874C162.125 21.9874 163.115 20.6164 163.495 19.0818L160.687 18.9182C160.511 19.8365 160.023 20.2264 159.087 20.2264C157.663 20.2264 157.215 19.044 157.215 17.8491V17.5975H163.644C163.644 17.5975 163.685 17.195 163.685 16.7799C163.685 14.1509 162.532 12.2013 159.019 12.2013C156.307 12.2013 154.056 13.3585 154.056 17.044C154.056 20.3648 155.832 21.9874 158.992 21.9874ZM158.965 13.8491C159.982 13.8491 160.633 14.3396 160.633 15.9874V16.0126H157.215C157.27 14.3396 157.989 13.8491 158.965 13.8491ZM175.267 20.0503H174.561C174.019 20.0503 173.842 19.7987 173.842 19.3585V15.6478C173.842 13.3962 172.554 12.2013 169.693 12.2013C166.858 12.2013 165.488 13.3711 165.326 15.0692L168.052 15.2201C168.052 14.3396 168.567 13.8491 169.516 13.8491C170.425 13.8491 170.954 14.2516 170.954 15.3333V16.1258H169.95C166.614 16.1258 164.919 16.9686 164.919 19.1698C164.919 20.5912 165.949 21.9874 168.201 21.9874C169.598 21.9874 170.737 21.4465 171.211 20.239C171.225 21.3836 172.229 21.9874 173.68 21.9874C174.317 21.9874 174.629 21.9748 175.267 21.912V20.0503ZM169.231 20.2264C168.269 20.2264 167.807 19.6101 167.807 18.9182C167.807 17.8616 168.703 17.5346 169.665 17.5346H170.954V18.239C170.954 19.522 170.235 20.2264 169.231 20.2264ZM176.731 21.8113H179.688V8H176.731V21.8113ZM181.247 14.3648H182.604V19.3082C182.604 21.0566 183.566 21.9874 185.289 21.9874C186.36 21.9874 186.943 21.912 187.554 21.8868V19.6855H186.604C185.831 19.6855 185.574 19.4717 185.574 18.805V14.3648H187.513V12.3774H185.574V9.48428H182.604V12.3774H181.247V14.3648ZM190.578 26C192.572 26 193.765 25.8491 194.633 23.6226L199 12.3774H196.057L194.66 16.7044C194.24 17.9874 193.738 19.3082 193.738 19.3082C193.738 19.3082 193.29 17.9748 192.856 16.7799L191.243 12.3774H188.313L192.287 22.0377L191.88 23.0818C191.677 23.6478 191.31 23.8365 190.578 23.8365H189.086V26H190.578Z" fill="white"/>
</svg>
